<?xml version="1.0" encoding="utf-8"?>
<!-- Generator: Adobe Illustrator 23.0.3, SVG Export Plug-In . SVG Version: 6.00 Build 0)  -->
<svg version="1.1" id="Layer_1" xmlns="http://www.w3.org/2000/svg" xmlns:xlink="http://www.w3.org/1999/xlink" x="0px" y="0px"
	 viewBox="0 0 22.7 22.1" style="enable-background:new 0 0 22.7 22.1;" xml:space="preserve">
<style type="text/css">
	.st0{fill:#FFFFFF;}
	.st1{fill:#83CBCD;}
</style>
<title>launchpad-icon-white</title>
<path class="st0" d="M22.6,11.3c1-5.1-2.4-10.1-7.5-11.1C14.5,0.1,13.9,0,13.3,0H13C9.3,0.1,5.8,2,3,4.4C1.4,5.7-0.1,7.5,0,9.5
	c0.1,1.8,1.5,3.3,2.4,4.8c1.1,2,1.6,4.5,3.2,6.1c1.1,1,2.5,1.6,4,1.7c4.3,0.3,8.4-1.8,10.7-5.4C21.4,15.1,22.2,13.2,22.6,11.3"/>
<path class="st1" d="M12.7,14.8c-0.6,0-1.1,0-1.7,0c-0.4,0-0.4,0.1-0.4,0.5c0.1,1,0.4,2,0.9,2.9c0.1,0.2,0.2,0.3,0.4,0.5
	c0.4-0.9,0.7-1.7,1-2.5c0.1-0.3,0.1-0.7,0.1-1C13,14.9,13,14.8,12.7,14.8"/>
<path class="st1" d="M11.9,5.9c0.7-0.1,1.3,0.5,1.4,1.2c0.1,0.7-0.5,1.3-1.2,1.4c-0.1,0-0.2,0-0.2,0c-0.7,0.1-1.3-0.5-1.4-1.2
	s0.5-1.3,1.2-1.4C11.8,5.9,11.8,5.9,11.9,5.9 M7.7,16c0.1,0,0.2,0,0.3-0.1c0.4-0.3,0.8-0.6,1.3-0.9c0.4-0.2,0.7-0.6,0.7-1
	c1.1,0,2.2,0,3.3,0c0.1,0,0.2,0.1,0.2,0.2c0.1,0.2,0.3,0.5,0.5,0.7c0.5,0.4,1,0.7,1.5,1.1c0.1,0.1,0.2,0.1,0.4,0.1
	c0-0.1,0.1-0.2,0.1-0.4c0-1.2,0-2.4,0-3.7c0.1-0.5-0.2-1-0.6-1.2c-0.4-0.2-0.6-0.5-0.5-0.9c0-0.1,0-0.3,0-0.4
	c-0.1-1.5-0.4-3-1.1-4.4c-0.3-0.5-0.6-1-1-1.5c-0.4-0.5-1.2-0.5-1.7-0.1c0,0-0.1,0.1-0.1,0.1c-0.5,0.5-0.9,1.1-1.2,1.8
	C9.4,6.9,9,8.3,8.9,9.7c0,0.6-0.3,1.1-0.8,1.3c-0.3,0.1-0.5,0.4-0.5,0.8c0,1.3,0,2.6,0,4C7.6,15.8,7.6,16,7.7,16"/>
</svg>
